<svg xmlns="http://www.w3.org/2000/svg" width="110.184" height="64.311"><path d="M.5 6.008v26.477h3.358V20.376h9.3v12.109h3.358V6.008h-3.358v11.451h-9.3V6.008Zm20.7 0v26.477h3.358V20.376h9.249v-2.917h-9.249V8.926h9.772V6.008Zm15.937 0v16.79c0 7.34 2.726 10.239 8.34 10.239s8.313-2.9 8.313-10.239V6.008h-3.358v16.955c0 5.8-1.762 7.267-4.955 7.267s-4.954-1.468-4.954-7.267V6.008Z" fill="#fff" stroke="rgba(0,0,0,0)"/><path d="m76.828.614-2.174 7.982a11.842 11.842 0 0 1-6.142 22.873l-2.147 8.01A20.124 20.124 0 0 0 76.828.614Zm-5.257 11.148a8.271 8.271 0 1 0 8.285 8.285 8.287 8.287 0 0 0-8.286-8.286Zm30.856.027-7.982 2.12a23.906 23.906 0 0 1 .8 6.138 23.687 23.687 0 0 1-40.433 16.707l-5.84 5.86a31.924 31.924 0 0 0 53.454-30.828Zm-.11 25.984a35.517 35.517 0 0 1-61.464.083l-7.185 4.158a43.818 43.818 0 0 0 75.832-.11Z" fill="#00cc7e" stroke="rgba(0,0,0,0)"/></svg>